<?xml version="1.0" standalone="no"?>
<!DOCTYPE svg PUBLIC "-//W3C//DTD SVG 20010904//EN"
 "http://www.w3.org/TR/2001/REC-SVG-20010904/DTD/svg10.dtd">
<svg version="1.0" xmlns="http://www.w3.org/2000/svg"
 width="3328.000000pt" height="1528.000000pt" viewBox="0 0 3328.000000 1528.000000"
 preserveAspectRatio="xMidYMid meet">
<metadata>
Created by potrace 1.15, written by Peter Selinger 2001-2017
</metadata>
<g transform="translate(0.000000,1528.000000) scale(0.100000,-0.100000)"
fill="#000000" stroke="none">
<path d="M12470 12861 l0 -49 41 -7 c56 -10 167 -67 222 -115 100 -88 179
-219 222 -366 l25 -86 0 -1679 c0 -1487 2 -1679 15 -1679 8 0 160 29 338 64
177 35 343 67 370 71 l47 7 0 563 c0 337 4 574 10 589 5 14 28 39 51 56 34 25
52 30 96 30 174 0 400 -103 527 -240 71 -77 84 -97 272 -402 183 -297 292
-445 409 -556 136 -129 269 -201 439 -238 98 -22 384 -30 532 -15 289 29 424
57 592 123 l103 40 32 -32 c18 -18 61 -46 97 -63 55 -26 80 -32 158 -35 57 -3
110 0 138 8 111 31 240 168 452 482 101 149 133 190 157 197 17 6 138 28 270
51 352 60 572 106 709 149 93 30 141 40 211 42 l90 4 35 -100 c119 -334 270
-620 378 -716 59 -52 98 -69 159 -69 127 1 227 105 227 235 0 78 -25 132 -139
300 -130 190 -179 309 -405 975 -203 602 -247 724 -320 895 l-42 99 -2 201
c-1 216 -6 240 -57 277 -29 22 -139 40 -187 32 -95 -18 -215 -195 -350 -520
-85 -203 -248 -479 -422 -714 -159 -216 -263 -366 -458 -660 -150 -227 -388
-575 -413 -604 -5 -6 -18 -5 -32 1 -32 15 -66 -8 -244 -163 -169 -148 -220
-185 -314 -228 -233 -108 -423 -60 -644 161 -112 112 -190 211 -332 418 -254
371 -341 485 -463 603 -82 81 -190 158 -263 188 -26 10 -47 21 -47 24 0 3 28
16 63 29 204 78 404 206 552 355 171 172 238 306 239 476 1 88 -1 99 -30 150
-36 64 -103 119 -182 149 -53 21 -57 21 -270 7 -120 -8 -265 -18 -324 -22 -60
-3 -108 -7 -108 -8 0 -1 30 -33 68 -71 141 -147 178 -326 100 -491 -84 -179
-450 -462 -717 -553 -133 -46 -322 -68 -390 -46 l-21 6 0 1260 0 1259 -635 0
-635 0 0 -49z m6256 -1986 c52 -128 224 -649 216 -657 -9 -10 -273 -82 -395
-108 -55 -12 -147 -35 -205 -52 -59 -17 -146 -33 -194 -37 -49 -3 -88 -5 -88
-4 0 6 155 266 228 383 146 233 385 581 393 573 4 -4 24 -48 45 -98z"/>
<path d="M1463 12643 c4 -4 60 -21 125 -39 134 -37 213 -65 259 -94 42 -25 96
-101 120 -165 17 -48 18 -140 21 -2019 l2 -1968 23 6 c12 3 186 75 387 160
l365 154 3 715 2 714 188 6 c688 23 1352 273 1764 665 205 195 305 392 315
622 11 253 -70 495 -245 730 -193 258 -449 418 -791 493 -94 20 -120 21 -1321
24 -673 2 -1221 0 -1217 -4z m1939 -453 c237 -50 420 -145 587 -305 143 -137
227 -279 278 -473 23 -85 26 -118 27 -262 0 -154 -2 -171 -27 -245 -39 -116
-91 -198 -187 -296 -194 -197 -427 -299 -685 -299 -122 0 -426 44 -602 87
l-23 5 0 904 0 903 98 4 c206 9 433 -1 534 -23z"/>
<path d="M27624 12080 c-57 -28 -170 -110 -406 -295 l-115 -90 263 -3 264 -2
0 -1178 c0 -800 -3 -1197 -11 -1237 -24 -131 -74 -202 -222 -317 l-89 -68 492
0 492 0 57 30 c31 17 97 64 146 105 50 41 113 92 142 112 56 41 60 53 47 136
l-7 37 -288 0 c-159 0 -289 2 -289 5 0 3 14 33 31 67 54 107 59 153 59 581 l0
387 756 0 755 0 -3 -527 c-4 -515 -4 -530 -26 -595 -25 -74 -79 -153 -176
-256 -36 -38 -66 -72 -66 -76 0 -3 211 -6 468 -6 l468 0 62 38 c34 20 123 86
198 146 113 91 135 112 130 130 -3 12 -6 40 -6 64 l0 42 -290 0 c-159 0 -290
2 -290 5 0 3 11 27 24 53 65 128 60 47 64 1240 l3 1082 50 0 c84 0 138 35 418
272 26 21 27 27 23 86 l-4 62 -498 0 -499 0 -66 -35 c-76 -39 -135 -82 -359
-259 l-159 -126 266 0 267 0 0 -455 0 -455 -755 0 -755 0 0 454 0 454 64 4
c76 5 120 31 285 167 165 136 150 117 144 189 l-5 62 -498 0 -497 0 -59 -30z"/>
<path d="M11080 11887 c-85 -45 -189 -211 -305 -487 -94 -224 -252 -492 -447
-756 -155 -211 -285 -399 -462 -669 -184 -279 -372 -548 -466 -665 l-77 -95
-72 -18 c-40 -11 -84 -29 -99 -42 -24 -21 -27 -30 -26 -89 l1 -66 -46 -17
c-104 -40 -265 -12 -436 75 -108 55 -165 109 -502 482 -223 246 -423 450 -586
596 l-78 71 88 33 c327 125 479 236 563 412 72 149 88 319 46 462 -24 79 -109
200 -180 258 -163 131 -428 214 -765 240 -156 12 -501 1 -691 -22 -41 -5 -219
-12 -395 -14 -176 -3 -426 -12 -555 -21 -129 -8 -270 -15 -312 -15 -98 0 -108
-4 -108 -45 0 -30 3 -33 41 -39 185 -30 340 -248 443 -624 l35 -127 7 -927 7
-928 21 1 c11 0 165 33 341 73 l320 72 3 524 c1 333 6 528 12 535 18 22 82 25
185 10 55 -8 121 -17 147 -20 32 -4 68 -20 110 -48 74 -49 275 -242 396 -381
410 -470 574 -643 668 -705 202 -133 531 -169 765 -85 49 18 103 27 205 34
124 8 295 32 333 45 8 3 24 -1 36 -9 52 -34 143 -56 233 -56 121 0 180 29 288
143 97 100 140 157 278 362 60 88 113 166 120 173 6 6 142 35 301 62 406 71
570 105 712 151 86 27 142 39 183 39 32 0 70 4 83 9 23 9 25 6 52 -72 32 -94
153 -383 198 -472 74 -148 186 -289 259 -326 71 -36 170 -20 239 40 54 46 79
100 79 176 0 78 -31 145 -144 309 -116 167 -180 318 -336 781 -237 703 -288
849 -356 1010 l-67 160 -1 205 c-1 187 -3 208 -21 240 -26 44 -72 66 -155 75
-57 5 -71 3 -110 -18z m-4346 -442 c253 -38 517 -147 629 -260 220 -223 161
-633 -117 -821 -135 -91 -420 -158 -710 -166 -141 -4 -135 -14 -152 284 -13
217 -20 311 -59 763 -8 94 -15 176 -15 183 0 7 15 20 33 28 40 18 229 13 391
-11z m4391 -629 c44 -115 195 -572 195 -592 0 -12 -191 -67 -415 -118 -82 -19
-181 -45 -220 -57 -66 -20 -245 -41 -245 -28 0 25 340 566 528 838 l85 124 14
-27 c8 -15 34 -78 58 -140z"/>
<path d="M21845 11609 c-66 -4 -172 -12 -235 -18 -63 -7 -250 -13 -415 -16
-165 -2 -412 -10 -550 -19 -137 -8 -287 -17 -332 -18 -45 -2 -84 -6 -87 -9 -3
-3 -3 -20 0 -37 5 -22 12 -32 25 -32 10 0 44 -10 76 -22 45 -16 75 -38 134
-97 114 -115 197 -290 263 -556 l24 -100 7 -915 c3 -503 8 -916 11 -919 3 -3
157 29 342 70 l337 76 3 531 2 532 28 6 c15 3 33 7 39 9 15 5 245 -23 295 -36
87 -22 268 -178 461 -398 497 -565 622 -695 727 -753 200 -111 506 -138 721
-64 57 20 110 28 215 36 261 18 476 70 592 144 l41 26 69 -35 c38 -20 113 -48
168 -62 95 -26 109 -27 339 -27 256 0 370 13 594 68 53 13 134 27 180 30 290
22 644 129 832 251 86 55 193 159 238 230 112 176 115 462 9 668 -68 131 -199
231 -352 271 -161 42 -412 46 -781 10 -354 -34 -628 15 -758 135 -87 80 -146
243 -132 361 22 183 168 389 331 470 92 45 148 53 263 36 215 -33 461 -157
624 -317 38 -38 77 -69 86 -69 48 -1 611 87 611 95 0 5 -14 39 -30 74 -59 124
-206 236 -404 306 -161 58 -267 75 -491 82 -411 11 -1059 -57 -1175 -124 -190
-109 -383 -289 -444 -415 -130 -267 -65 -524 173 -682 102 -68 222 -105 389
-118 128 -10 157 -9 427 21 160 17 353 35 431 41 129 10 145 9 205 -9 171 -53
330 -203 392 -370 17 -44 21 -78 20 -161 -1 -127 -30 -237 -99 -379 -79 -160
-211 -273 -374 -317 -87 -24 -295 -24 -400 -1 -241 55 -488 263 -569 480 -11
32 -21 67 -21 77 0 27 2 27 -357 -20 -170 -22 -311 -40 -314 -40 -8 0 15 -111
36 -175 23 -68 59 -139 105 -206 46 -67 50 -59 -80 -137 -149 -89 -195 -106
-280 -106 -89 0 -158 16 -261 59 -137 58 -194 104 -371 299 -343 380 -500 546
-644 680 -82 77 -164 154 -182 171 l-33 31 98 39 c271 106 434 212 512 333 88
137 126 326 96 473 -22 110 -62 185 -144 272 -214 225 -653 325 -1256 286z
m-25 -170 c153 -26 272 -64 415 -133 122 -59 191 -114 241 -192 123 -193 94
-482 -67 -658 -142 -156 -377 -232 -810 -262 -89 -6 -98 -5 -117 14 -27 27
-28 38 -47 352 -9 146 -24 360 -35 475 -39 425 -39 413 15 428 39 12 282 -3
405 -24z"/>
<path d="M26722 7458 c-22 -22 -13 -46 28 -78 44 -34 145 -160 202 -250 69
-110 468 -860 468 -880 0 -13 -222 -349 -329 -500 -166 -232 -315 -420 -439
-552 -36 -39 -52 -65 -50 -79 3 -20 6 -21 343 -19 186 0 341 3 344 6 3 3 0 17
-6 32 -6 15 -23 56 -38 91 -80 191 -24 397 213 779 l45 73 49 -93 c81 -153
246 -500 268 -563 41 -118 37 -228 -10 -270 -11 -10 -20 -26 -20 -37 0 -17 17
-18 370 -18 427 0 412 -4 316 92 -110 112 -165 208 -480 835 l-227 452 79 113
c230 331 287 408 391 533 63 75 149 174 193 220 51 54 78 91 76 102 -3 17 -25
18 -328 18 l-325 0 -3 -23 c-2 -14 5 -33 17 -45 51 -55 54 -249 5 -395 -24
-71 -79 -187 -131 -275 -39 -67 -47 -76 -61 -65 -43 35 -292 609 -292 673 0
12 11 36 25 55 29 39 32 65 9 74 -9 3 -167 6 -353 6 -249 0 -340 -3 -349 -12z"/>
<path d="M28800 7457 c0 -14 25 -52 51 -78 39 -39 63 -103 285 -754 75 -220
199 -578 276 -795 77 -217 166 -471 199 -565 32 -93 62 -176 67 -184 10 -17
33 -6 101 45 88 68 307 150 428 161 74 7 90 20 77 65 -8 26 -18 34 -60 48 -28
9 -73 29 -100 45 -51 30 -149 117 -165 146 -9 18 36 189 193 734 146 508 277
838 414 1037 30 44 54 86 54 94 0 12 -48 14 -316 14 l-316 0 17 -26 c26 -41
53 -127 76 -248 35 -180 16 -428 -52 -701 -40 -161 -171 -640 -179 -654 -8
-16 -5 -24 -196 542 -131 391 -258 802 -270 877 -7 45 10 103 43 146 50 66 59
64 -302 64 -257 0 -325 -3 -325 -13z"/>
<path d="M10641 3463 c-70 -51 -75 -60 -267 -471 l-43 -93 -110 213 c-61 117
-127 246 -148 285 l-38 73 -76 0 c-71 0 -79 -2 -121 -34 -24 -19 -52 -46 -62
-60 l-16 -26 71 0 71 0 -6 -72 c-4 -40 -13 -156 -22 -258 -17 -216 -36 -309
-70 -349 -13 -16 -24 -32 -24 -35 0 -3 48 -6 108 -6 83 0 113 4 132 16 34 23
110 96 110 106 0 4 -35 8 -79 8 l-78 0 13 58 c7 31 18 111 24 177 7 66 13 121
14 122 7 7 171 -329 194 -396 l27 -80 61 46 c60 47 62 49 165 264 l104 216 6
-111 c14 -240 11 -339 -11 -381 -11 -22 -20 -41 -20 -42 0 -2 45 -3 100 -3
l100 0 43 39 c29 27 61 44 102 56 97 28 88 35 -41 35 l-121 0 -8 283 c-4 155
-10 324 -14 375 l-6 93 -64 -48z"/>
<path d="M16693 3461 c-60 -44 -64 -51 -137 -201 -41 -85 -97 -202 -123 -259
l-48 -103 -61 118 c-33 66 -100 194 -148 287 l-87 167 -79 0 -79 0 -63 -60
-63 -59 73 -1 72 0 0 -39 c0 -78 -31 -418 -45 -506 -11 -59 -24 -103 -40 -127
-14 -21 -25 -40 -25 -43 0 -3 49 -5 109 -5 l108 0 64 57 c35 31 66 60 67 65 2
4 -33 8 -77 8 -45 0 -81 1 -81 3 0 1 6 36 14 77 8 41 18 122 22 178 4 57 10
99 14 95 21 -23 164 -311 186 -374 13 -41 27 -80 29 -87 3 -8 26 4 67 37 63
49 64 51 163 261 l100 211 7 -58 c3 -32 8 -132 10 -223 2 -141 0 -170 -15
-199 -9 -19 -17 -38 -17 -43 0 -4 42 -8 93 -8 97 0 116 7 171 62 9 9 44 25 77
34 33 9 62 21 65 25 3 5 -50 9 -116 9 l-122 0 6 26 c7 28 -12 600 -23 675 l-6
46 -62 -46z"/>
<path d="M4424 3482 c-129 -45 -252 -153 -308 -272 -30 -63 -31 -70 -31 -200
0 -117 3 -142 23 -191 99 -247 404 -277 620 -63 l52 53 0 99 c0 113 8 126 90
158 25 9 49 21 55 26 5 4 -65 8 -157 8 l-167 0 -60 -56 c-34 -31 -61 -60 -61
-65 0 -5 36 -9 80 -9 l80 0 0 -100 c0 -100 0 -101 -27 -112 -16 -6 -62 -13
-103 -16 -68 -3 -80 -1 -130 25 -107 56 -168 191 -157 348 8 106 24 151 72
201 33 34 51 44 99 54 59 12 125 8 199 -11 38 -10 39 -11 33 -45 -5 -22 -3
-34 4 -34 38 0 160 102 160 134 0 67 -240 111 -366 68z"/>
<path d="M6215 3482 c-130 -45 -245 -144 -303 -261 l-37 -75 0 -141 c0 -130 2
-144 26 -196 77 -163 243 -236 409 -179 80 27 189 98 230 149 29 37 30 43 30
133 0 108 8 122 90 154 25 9 49 21 55 26 5 4 -66 8 -158 8 l-167 0 -67 -65
-68 -64 88 -1 87 0 0 -100 c0 -100 0 -101 -27 -111 -16 -6 -60 -14 -98 -16
-124 -9 -206 43 -264 167 -23 49 -26 67 -26 170 0 137 17 191 75 243 62 57
167 69 293 36 38 -10 39 -11 33 -45 -9 -44 6 -45 65 -3 65 46 99 81 99 99 0
68 -239 115 -365 72z"/>
<path d="M8776 3490 c-105 -27 -245 -134 -304 -233 -44 -73 -62 -144 -62 -247
1 -142 32 -233 108 -308 138 -138 370 -115 540 54 l52 53 0 99 c0 90 2 100 23
120 13 12 44 29 70 38 26 9 49 20 53 25 3 5 -61 9 -153 9 -131 0 -163 -3 -183
-16 -34 -23 -110 -96 -110 -106 0 -4 36 -8 80 -8 l80 0 0 -100 c0 -100 0 -101
-27 -112 -16 -6 -62 -13 -103 -16 -67 -3 -80 -1 -129 25 -109 57 -169 191
-158 351 14 199 118 285 308 253 97 -16 111 -24 98 -58 -5 -14 -7 -28 -4 -31
9 -10 69 24 118 68 38 34 47 48 45 69 -2 22 -13 30 -63 50 -68 27 -211 37
-279 21z"/>
<path d="M23596 3479 c-125 -43 -242 -144 -297 -255 -41 -83 -56 -188 -41
-292 14 -101 40 -161 97 -221 65 -70 128 -95 236 -96 81 0 90 2 170 42 62 30
101 58 142 102 l57 60 0 100 0 100 43 25 c23 13 54 28 70 31 64 16 17 25 -132
25 l-160 0 -65 -56 c-36 -30 -66 -59 -66 -65 0 -5 38 -9 85 -9 l85 0 0 -98 c0
-98 0 -99 -27 -112 -40 -18 -163 -25 -206 -11 -53 18 -122 84 -154 149 -26 54
-28 65 -28 187 0 125 1 132 29 183 44 79 97 107 201 107 79 0 175 -20 175 -36
0 -4 -5 -20 -10 -34 -10 -26 -9 -27 16 -21 35 9 142 93 149 117 8 25 0 36 -43
58 -88 44 -230 53 -326 20z"/>
<path d="M18195 3477 c-151 -50 -266 -174 -316 -340 -18 -56 -20 -87 -17 -180
3 -97 7 -120 31 -172 34 -73 85 -128 152 -163 45 -24 61 -27 150 -27 89 0 106
3 157 28 121 59 224 185 274 334 23 68 26 90 22 178 -3 82 -9 110 -30 157 -31
66 -97 137 -160 169 -53 28 -200 37 -263 16z m153 -143 c109 -53 168 -183 160
-348 -12 -218 -125 -314 -307 -260 -71 21 -140 89 -172 170 -20 50 -24 76 -24
179 0 136 15 192 65 240 61 58 179 66 278 19z"/>
<path d="M26766 3479 c-178 -42 -344 -216 -377 -394 -32 -173 39 -372 158
-442 44 -25 57 -28 143 -28 89 0 100 3 171 37 57 28 95 56 152 115 42 42 75
78 73 80 -2 2 -52 -20 -112 -49 -104 -50 -113 -53 -190 -53 -71 0 -85 3 -123
28 -85 56 -136 175 -135 317 1 122 42 207 117 247 40 20 134 33 182 25 35 -7
40 -11 40 -35 -1 -45 28 -35 123 42 31 25 42 42 42 62 0 25 -5 30 -52 44 -56
16 -151 18 -212 4z"/>
<path d="M27596 3479 c-125 -29 -275 -152 -335 -273 -110 -223 -18 -535 172
-587 74 -20 180 -5 263 36 72 35 237 175 223 189 -3 3 -54 -17 -114 -45 -134
-65 -215 -75 -289 -39 -81 39 -138 133 -156 257 -19 135 20 256 99 309 44 29
138 46 196 36 35 -7 40 -11 40 -35 -1 -40 24 -35 97 21 50 38 64 55 66 79 3
29 0 32 -44 47 -51 17 -155 20 -218 5z"/>
<path d="M13761 3444 c-134 -67 -211 -172 -197 -269 12 -77 58 -116 211 -175
106 -41 155 -92 155 -160 0 -21 -9 -41 -29 -61 -26 -26 -36 -29 -91 -29 -59 0
-121 18 -134 38 -3 6 12 33 34 61 22 28 40 55 40 60 0 16 -156 -87 -190 -125
-40 -46 -40 -84 0 -118 138 -116 447 1 499 190 16 56 13 103 -8 150 -24 53
-60 78 -182 124 -110 42 -135 59 -156 109 -32 75 16 127 109 119 27 -3 51 -8
54 -11 4 -3 -8 -24 -25 -45 -17 -22 -31 -42 -31 -45 0 -3 23 4 52 16 51 22
140 93 158 127 25 47 -28 80 -128 80 -60 0 -79 -5 -141 -36z"/>
<path d="M18883 3450 c-31 -18 -76 -59 -112 -102 -87 -102 -84 -107 21 -36 31
21 63 38 71 38 59 0 136 -206 206 -557 22 -107 42 -197 44 -200 10 -9 126 90
140 121 12 25 90 222 127 321 7 19 69 -216 101 -382 6 -35 14 -63 16 -63 10 0
98 68 119 92 21 22 180 431 223 572 12 37 21 90 21 118 0 41 -5 54 -29 79 -47
46 -89 39 -165 -29 -32 -27 -35 -35 -26 -52 8 -14 17 -19 30 -15 23 7 50 -29
50 -67 0 -47 -115 -378 -131 -378 -3 0 -12 26 -19 58 -49 219 -124 442 -165
486 l-25 27 -64 -53 -64 -53 21 -30 c19 -25 22 -43 21 -115 0 -83 -22 -171
-70 -287 l-16 -38 -49 193 c-69 276 -124 382 -197 382 -15 0 -50 -14 -79 -30z"/>
<path d="M24865 3450 c-124 -60 -205 -156 -205 -243 0 -100 40 -140 200 -203
137 -54 180 -106 158 -192 -12 -46 -46 -64 -117 -63 -61 0 -131 24 -131 44 0
5 19 34 41 64 23 29 40 56 37 58 -2 3 -47 -23 -99 -58 -109 -72 -141 -116
-117 -163 22 -47 81 -69 178 -69 75 0 93 4 152 32 133 63 198 149 198 264 0
105 -44 155 -180 203 -138 50 -180 87 -180 158 0 53 29 73 105 73 35 0 67 -4
71 -7 4 -4 -10 -26 -30 -49 -21 -22 -35 -43 -33 -46 10 -10 129 59 172 100 83
80 49 127 -92 127 -54 0 -80 -6 -128 -30z"/>
<path d="M29015 3451 c-165 -78 -247 -206 -201 -315 20 -48 74 -87 173 -125
100 -38 146 -69 168 -111 24 -46 19 -87 -14 -121 -26 -26 -36 -29 -91 -29 -59
0 -121 18 -134 38 -3 6 12 33 34 61 22 28 40 55 40 60 0 16 -156 -87 -190
-125 -96 -110 68 -203 257 -146 162 50 267 180 249 310 -13 93 -52 130 -199
183 -101 36 -141 65 -157 115 -25 75 21 120 112 112 27 -3 51 -8 54 -11 4 -3
-8 -24 -26 -47 -18 -23 -31 -42 -29 -44 2 -2 31 9 64 25 57 28 126 85 146 121
24 44 -31 78 -128 78 -54 0 -80 -6 -128 -29z"/>
<path d="M29778 3465 c-92 -34 -195 -122 -224 -191 -30 -71 -9 -156 49 -205
12 -10 58 -33 102 -50 148 -58 179 -80 195 -140 13 -46 -6 -101 -40 -119 -50
-27 -210 -2 -210 33 0 5 19 34 41 64 23 29 40 56 37 58 -8 8 -185 -114 -202
-140 -10 -16 -16 -40 -14 -63 3 -32 9 -40 48 -62 38 -21 58 -25 130 -25 75 0
93 4 152 32 133 63 198 149 198 264 0 104 -44 155 -178 203 -135 48 -171 78
-179 148 -7 62 18 83 102 83 35 0 67 -4 71 -7 4 -4 -10 -26 -30 -49 -21 -22
-35 -43 -33 -46 11 -11 149 71 182 108 47 52 47 85 0 105 -43 17 -148 17 -197
-1z"/>
<path d="M2331 3418 c-34 -28 -61 -55 -61 -60 0 -4 25 -8 55 -8 l55 0 0 -124
0 -124 -51 -46 -51 -46 51 0 51 0 0 -129 c0 -123 -1 -131 -30 -187 -16 -32
-30 -60 -30 -62 0 -2 84 -2 188 0 l187 3 58 39 c52 35 127 116 127 137 0 5
-26 -3 -57 -18 -52 -25 -71 -28 -183 -31 l-125 -3 3 125 3 126 73 0 c70 0 73
1 109 38 27 28 35 43 31 60 -6 21 -11 22 -110 22 l-104 0 0 110 0 110 108 0
108 0 37 38 c20 21 37 48 37 60 0 22 0 22 -209 22 l-209 0 -61 -52z"/>
<path d="M3034 3413 l-67 -58 70 -3 70 -3 7 -91 c9 -139 7 -419 -4 -479 -6
-29 -19 -72 -30 -94 -11 -23 -20 -44 -20 -48 0 -4 47 -7 104 -7 l104 0 66 57
c36 31 66 60 66 65 0 4 -36 8 -81 8 -73 0 -80 2 -74 18 4 9 10 100 14 201 l6
185 96 -130 c200 -268 259 -356 265 -396 4 -21 12 -38 19 -38 7 0 34 24 62 53
l50 52 17 125 c10 69 20 213 23 320 l5 195 35 37 c19 20 56 44 82 53 25 10 50
22 56 26 5 5 -58 9 -147 9 l-157 0 -60 -50 c-33 -27 -62 -54 -66 -60 -4 -6 16
-10 54 -10 l61 0 0 -210 c0 -115 -2 -210 -4 -210 -3 0 -46 57 -98 127 -51 70
-132 179 -181 241 l-87 113 62 29 63 29 -157 0 -156 1 -68 -57z"/>
<path d="M5264 3461 c-18 -5 -47 -17 -65 -29 -42 -26 -168 -152 -152 -152 6 0
40 13 75 30 39 19 79 30 106 30 23 0 42 -2 42 -5 0 -14 -177 -468 -201 -516
-15 -30 -43 -76 -62 -101 -19 -25 -40 -56 -47 -68 l-12 -23 85 5 c99 7 154 29
207 83 32 33 33 36 17 52 -13 14 -21 15 -42 5 -29 -13 -69 -16 -63 -4 2 4 20
40 41 80 37 72 37 72 80 72 23 1 61 5 84 9 l42 8 21 -81 c43 -165 52 -189 76
-213 21 -21 32 -24 60 -20 34 6 112 56 147 95 16 18 16 20 -2 36 -16 14 -23
15 -41 6 -12 -6 -27 -9 -34 -7 -14 6 -64 177 -149 507 l-52 205 -65 2 c-36 1
-79 -2 -96 -6z"/>
<path d="M6846 3413 l-65 -58 60 -3 60 -3 -3 -317 -3 -317 -27 -36 c-16 -20
-28 -39 -28 -42 0 -4 50 -7 110 -7 l110 0 44 40 c34 32 42 45 38 65 -4 23 -9
25 -59 25 -46 0 -54 3 -49 16 3 9 6 141 6 295 l0 279 23 0 c34 0 98 69 91 98
-6 21 -11 22 -125 22 l-118 0 -65 -57z"/>
<path d="M7365 3413 l-67 -58 70 -3 69 -3 7 -67 c3 -37 6 -157 6 -267 0 -206
-11 -289 -44 -339 -9 -14 -16 -30 -16 -36 0 -6 39 -10 104 -10 l104 0 66 56
c36 31 66 60 66 65 0 5 -36 9 -81 9 -74 0 -80 2 -74 18 5 9 11 100 14 202 l6
184 86 -114 c223 -299 279 -383 279 -422 0 -15 5 -28 11 -28 18 0 98 72 108
99 22 56 43 246 48 441 l5 205 35 37 c19 20 56 44 82 53 25 10 50 22 56 26 5
5 -58 9 -147 9 l-157 0 -68 -57 -68 -58 62 -3 61 -3 3 -117 c2 -64 2 -160 -1
-211 l-5 -95 -90 124 c-49 68 -132 177 -183 242 l-92 119 46 19 c25 11 50 20
54 20 5 0 12 5 15 10 4 7 -48 10 -149 10 l-154 0 -67 -57z"/>
<path d="M11073 3431 c-26 -21 -57 -48 -67 -60 l-19 -21 61 0 62 0 0 -292 c0
-163 -5 -309 -10 -329 -6 -19 -21 -46 -35 -59 -14 -13 -25 -27 -25 -32 0 -4
52 -8 115 -8 l115 0 40 36 c29 26 40 44 40 65 0 29 -1 29 -56 29 l-56 0 6 31
c3 17 6 150 6 295 0 246 1 264 18 264 9 0 34 14 55 31 27 22 37 38 37 60 l0
29 -119 0 -119 0 -49 -39z"/>
<path d="M11569 3410 l-64 -59 71 -1 71 0 7 -227 c9 -295 0 -365 -62 -485 -2
-5 46 -8 106 -8 l109 0 64 57 c35 31 66 60 67 65 2 4 -33 8 -78 8 l-82 0 6 32
c4 18 9 108 13 200 l6 168 51 -66 c143 -186 298 -412 309 -451 6 -24 14 -43
18 -43 4 0 30 21 58 48 50 47 51 47 65 142 20 128 36 330 36 456 l0 104 38 35
c20 19 57 42 82 51 25 10 49 21 55 26 5 4 -63 8 -152 8 l-161 0 -66 -60 -66
-60 59 0 c58 0 59 0 65 -31 9 -45 8 -389 -2 -389 -4 0 -13 10 -21 23 -11 18
-249 335 -324 433 l-19 24 56 25 c31 14 56 27 56 30 0 3 -69 5 -154 5 l-153 0
-64 -60z"/>
<path d="M12647 3431 c-30 -28 -62 -44 -112 -59 l-70 -20 118 -1 117 -1 0
-287 c0 -301 -5 -348 -39 -394 -12 -16 -21 -31 -21 -34 0 -9 221 -6 280 4 135
22 254 94 320 193 58 88 75 146 74 263 -1 124 -25 193 -88 259 -87 89 -177
116 -388 116 l-148 0 -43 -39z m380 -126 c98 -48 146 -142 147 -285 1 -95 -18
-161 -59 -203 -41 -43 -92 -57 -200 -57 -75 0 -86 2 -81 16 3 9 6 140 6 291
l0 276 67 -6 c41 -4 88 -17 120 -32z"/>
<path d="M15163 3431 c-26 -21 -57 -48 -67 -60 l-19 -21 61 0 62 0 0 -122 0
-123 -52 -47 -53 -47 53 -1 54 0 -4 -137 c-3 -129 -5 -141 -30 -185 -16 -26
-28 -49 -28 -52 0 -3 79 -6 175 -6 190 0 196 1 282 62 41 30 110 115 100 124
-3 3 -32 -8 -66 -25 -58 -30 -66 -31 -182 -31 -106 0 -120 2 -115 16 3 9 6 65
6 125 l0 109 70 0 c66 0 72 2 109 35 30 27 37 40 33 60 -4 25 -5 25 -108 25
l-104 0 0 110 0 110 108 0 108 0 37 38 c27 28 35 43 31 60 -6 22 -8 22 -209
22 l-203 0 -49 -39z"/>
<path d="M17089 3411 l-64 -60 73 -1 72 0 0 -277 c0 -153 -3 -295 -6 -315 -4
-21 -21 -54 -40 -77 -19 -21 -34 -42 -34 -45 0 -3 49 -6 109 -6 l108 0 45 39
c34 31 62 44 122 60 43 10 80 22 84 25 3 3 -57 6 -132 6 -127 0 -138 1 -131
17 3 10 9 46 12 80 5 58 8 63 29 63 81 0 238 107 286 196 68 125 35 268 -75
327 -38 20 -59 22 -218 25 l-177 4 -63 -61z m336 -90 c22 -10 47 -27 57 -37
44 -51 43 -180 -4 -217 -19 -16 -34 -18 -84 -14 -34 2 -67 8 -73 11 -7 5 -11
54 -11 142 l0 134 38 0 c20 0 55 -9 77 -19z"/>
<path d="M20098 3410 l-63 -59 58 -1 57 0 0 -122 0 -122 -47 -48 -47 -48 47 0
47 0 0 -134 c0 -129 -1 -136 -29 -190 l-30 -56 184 0 183 0 63 43 c57 38 129
115 129 137 0 5 -28 -4 -62 -20 -59 -28 -71 -30 -182 -30 l-119 0 7 46 c3 26
6 82 6 125 l0 79 68 0 c65 0 69 1 105 38 20 21 37 48 37 60 0 21 -3 22 -105
22 l-105 0 0 110 0 110 103 0 c100 0 103 1 140 31 27 22 37 38 37 60 l0 29
-210 0 -209 0 -63 -60z"/>
<path d="M20834 3432 c-27 -21 -58 -49 -68 -61 l-19 -21 66 0 67 0 0 -305 c0
-317 -4 -351 -43 -384 -10 -7 -17 -17 -17 -22 0 -5 50 -9 110 -9 l110 0 44 40
c34 32 42 45 38 65 -4 23 -9 25 -56 25 l-51 0 3 95 c2 52 7 95 12 95 32 0 73
-40 171 -167 72 -91 120 -145 136 -149 40 -10 93 6 131 41 36 33 109 141 100
150 -2 2 -26 -11 -53 -30 -27 -19 -55 -35 -62 -35 -7 0 -62 61 -121 137 l-109
136 58 58 c87 87 112 190 67 279 -17 34 -35 51 -73 70 -46 23 -61 25 -220 28
l-171 4 -50 -40z m306 -104 c65 -24 99 -96 80 -168 -13 -50 -50 -71 -137 -78
l-63 -5 0 137 0 137 48 -7 c26 -4 58 -11 72 -16z"/>
<path d="M21689 3410 l-64 -59 63 -1 63 0 -3 -314 -3 -314 -32 -40 c-18 -23
-33 -43 -33 -46 0 -3 51 -6 113 -6 l113 0 42 36 c32 27 42 43 42 65 0 29 -1
29 -56 29 l-56 0 6 31 c3 17 6 150 6 295 0 245 1 264 18 264 28 1 92 67 92 95
l0 25 -124 0 -123 0 -64 -60z"/>
<path d="M22207 3410 l-68 -60 74 0 74 0 6 -202 c9 -309 -1 -394 -61 -510 -2
-5 43 -8 100 -8 81 0 109 4 129 18 30 19 119 100 119 107 0 3 -35 5 -78 5
l-77 0 3 183 c1 100 4 192 5 205 2 18 25 -8 109 -120 176 -237 257 -358 264
-394 3 -19 10 -34 14 -34 22 0 101 85 109 118 20 75 42 281 48 460 l6 183 39
33 c21 19 59 39 84 46 24 7 47 17 50 21 3 5 -66 9 -154 9 l-159 0 -65 -57 -66
-58 58 -3 58 -3 6 -37 c8 -52 7 -355 -2 -369 -4 -7 -37 31 -87 100 -44 61
-121 163 -170 226 -50 64 -94 122 -99 129 -5 9 9 20 48 37 31 14 56 27 56 30
0 3 -69 5 -153 5 l-153 0 -67 -60z"/>
<path d="M25389 3410 l-64 -59 58 -1 57 0 0 -257 c0 -283 8 -337 56 -400 74
-97 260 -98 395 -2 l33 24 -22 -36 c-12 -20 -22 -39 -22 -43 0 -3 47 -6 105
-6 l105 0 43 39 c26 24 64 45 100 57 31 10 57 21 57 26 0 4 -52 8 -116 8 -116
0 -116 0 -110 23 3 12 6 145 6 295 l0 272 23 0 c13 0 38 15 57 35 22 22 56 42
97 56 35 11 63 23 63 25 0 2 -83 4 -184 4 l-184 0 -67 -57 -67 -58 61 -3 61
-3 0 -274 0 -274 -57 -27 c-108 -53 -214 -30 -263 57 -24 43 -25 49 -28 282
-3 213 -2 237 13 237 9 0 32 15 51 34 19 18 61 43 94 55 33 12 60 24 60 27 0
2 -78 4 -174 4 l-173 0 -64 -60z"/>
<path d="M28076 3410 l-66 -60 60 0 60 0 0 -122 0 -122 -47 -48 -47 -48 47 0
47 0 0 -134 c0 -129 -1 -135 -30 -190 l-30 -56 184 0 184 0 63 43 c57 38 129
115 129 137 0 5 -29 -4 -65 -21 -60 -27 -74 -29 -181 -29 l-117 0 7 53 c3 28
6 85 6 125 l0 72 68 0 c66 0 69 1 106 39 62 63 51 75 -72 79 l-102 3 0 109 0
110 103 0 c100 0 103 1 140 31 27 22 37 38 37 60 l0 29 -209 0 -209 0 -66 -60z"/>
<path d="M14328 2789 c-27 -22 -48 -47 -48 -55 0 -8 12 -36 28 -64 20 -37 33
-50 50 -50 20 0 22 -4 17 -22 -4 -13 -16 -37 -26 -54 -14 -23 -16 -33 -7 -42
19 -19 42 -14 71 16 63 65 75 171 30 259 -33 66 -51 68 -115 12z"/>
</g>
</svg>
